<svg width="271" height="251" viewBox="0 0 271 251" fill="none" xmlns="http://www.w3.org/2000/svg">
<path fill-rule="evenodd" clip-rule="evenodd" d="M1.2002 4.00001C1.2002 2.45361 2.4538 1.20001 4.0002 1.20001H180C181.547 1.20001 182.8 2.45361 182.8 4.00001V67.84C182.8 69.3864 181.547 70.64 180 70.64C178.454 70.64 177.2 69.3864 177.2 67.84V6.80001H6.8002V243.76H177.2V213.12C177.2 211.574 178.454 210.32 180 210.32C181.547 210.32 182.8 211.574 182.8 213.12V246.56C182.8 248.106 181.547 249.36 180 249.36H4.0002C2.4538 249.36 1.2002 248.106 1.2002 246.56V4.00001Z" fill="#4C6267"/>
<path fill-rule="evenodd" clip-rule="evenodd" d="M18.3203 45.68C18.3203 44.1336 19.5739 42.88 21.1203 42.88H165.92C167.467 42.88 168.72 44.1336 168.72 45.68C168.72 47.2264 167.467 48.48 165.92 48.48H21.1203C19.5739 48.48 18.3203 47.2264 18.3203 45.68Z" fill="#4C6267"/>
<path fill-rule="evenodd" clip-rule="evenodd" d="M18.3203 83.84C18.3203 82.2936 19.5739 81.04 21.1203 81.04H125.52C127.067 81.04 128.32 82.2936 128.32 83.84C128.32 85.3864 127.067 86.64 125.52 86.64H21.1203C19.5739 86.64 18.3203 85.3864 18.3203 83.84Z" fill="#01A0C6"/>
<path fill-rule="evenodd" clip-rule="evenodd" d="M18.3203 107.84C18.3203 106.294 19.5739 105.04 21.1203 105.04H109.12C110.667 105.04 111.92 106.294 111.92 107.84C111.92 109.386 110.667 110.64 109.12 110.64H21.1203C19.5739 110.64 18.3203 109.386 18.3203 107.84Z" fill="#01A0C6"/>
<path fill-rule="evenodd" clip-rule="evenodd" d="M18.3203 131.84C18.3203 130.294 19.5739 129.04 21.1203 129.04H96.0803C97.6267 129.04 98.8803 130.294 98.8803 131.84C98.8803 133.386 97.6267 134.64 96.0803 134.64H21.1203C19.5739 134.64 18.3203 133.386 18.3203 131.84Z" fill="#01A0C6"/>
<path fill-rule="evenodd" clip-rule="evenodd" d="M18.3203 155.84C18.3203 154.294 19.5739 153.04 21.1203 153.04H96.0803C97.6267 153.04 98.8803 154.294 98.8803 155.84C98.8803 157.386 97.6267 158.64 96.0803 158.64H21.1203C19.5739 158.64 18.3203 157.386 18.3203 155.84Z" fill="#01A0C6"/>
<path fill-rule="evenodd" clip-rule="evenodd" d="M18.3203 179.84C18.3203 178.294 19.5739 177.04 21.1203 177.04H109.12C110.667 177.04 111.92 178.294 111.92 179.84C111.92 181.386 110.667 182.64 109.12 182.64H21.1203C19.5739 182.64 18.3203 181.386 18.3203 179.84Z" fill="#01A0C6"/>
<path fill-rule="evenodd" clip-rule="evenodd" d="M18.3203 203.84C18.3203 202.294 19.5739 201.04 21.1203 201.04H125.52C127.067 201.04 128.32 202.294 128.32 203.84C128.32 205.386 127.067 206.64 125.52 206.64H21.1203C19.5739 206.64 18.3203 205.386 18.3203 203.84Z" fill="#01A0C6"/>
<path fill-rule="evenodd" clip-rule="evenodd" d="M157.68 139.84C157.68 126.847 168.221 116.4 181.12 116.4C182.667 116.4 183.92 117.654 183.92 119.2C183.92 120.746 182.667 122 181.12 122C171.299 122 163.28 129.953 163.28 139.84C163.28 149.734 171.227 157.68 181.12 157.68C191.014 157.68 198.96 149.734 198.96 139.84C198.96 138.294 200.214 137.04 201.76 137.04C203.307 137.04 204.56 138.294 204.56 139.84C204.56 152.826 194.107 163.28 181.12 163.28C168.134 163.28 157.68 152.826 157.68 139.84Z" fill="#4C6267"/>
<path fill-rule="evenodd" clip-rule="evenodd" d="M122.32 139.84C122.32 107.334 148.614 81.04 181.12 81.04C190.933 81.04 200.18 83.3899 208.343 87.6817C209.712 88.4014 210.238 90.0943 209.519 91.4631C208.799 92.8318 207.106 93.358 205.737 92.6384C198.38 88.7702 190.027 86.64 181.12 86.64C151.707 86.64 127.92 110.426 127.92 139.84C127.92 169.254 151.707 193.04 181.12 193.04C210.534 193.04 234.32 169.254 234.32 139.84C234.32 130.255 231.811 121.291 227.406 113.544C226.642 112.2 227.112 110.49 228.456 109.726C229.801 108.962 231.51 109.432 232.274 110.776C237.149 119.349 239.92 129.265 239.92 139.84C239.92 172.346 213.627 198.64 181.12 198.64C148.614 198.64 122.32 172.346 122.32 139.84Z" fill="#4C6267"/>
<path fill-rule="evenodd" clip-rule="evenodd" d="M140.16 139.84C140.16 117.254 158.454 98.96 181.04 98.96C185.382 98.96 189.518 99.5569 193.508 100.858C194.978 101.337 195.782 102.918 195.302 104.388C194.823 105.858 193.242 106.661 191.772 106.182C188.402 105.083 184.858 104.56 181.04 104.56C161.547 104.56 145.76 120.346 145.76 139.84C145.76 159.334 161.547 175.12 181.04 175.12C200.534 175.12 216.32 159.334 216.32 139.84C216.32 135.473 215.507 131.317 214.09 127.441C213.56 125.988 214.307 124.381 215.759 123.85C217.212 123.319 218.819 124.067 219.35 125.519C220.974 129.963 221.92 134.767 221.92 139.84C221.92 162.426 203.627 180.72 181.04 180.72C158.454 180.72 140.16 162.426 140.16 139.84Z" fill="#01A0C6"/>
<path d="M181.12 149.2C186.29 149.2 190.48 145.009 190.48 139.84C190.48 134.671 186.29 130.48 181.12 130.48C175.951 130.48 171.76 134.671 171.76 139.84C171.76 145.009 175.951 149.2 181.12 149.2Z" fill="#01A0C6"/>
<path fill-rule="evenodd" clip-rule="evenodd" d="M246.38 74.5801C247.474 75.6736 247.474 77.4464 246.38 78.5399L183.1 141.82C182.007 142.913 180.234 142.913 179.14 141.82C178.047 140.726 178.047 138.954 179.14 137.86L242.42 74.5801C243.514 73.4866 245.287 73.4866 246.38 74.5801Z" fill="#01A0C6"/>
<path fill-rule="evenodd" clip-rule="evenodd" d="M244.4 52.32C245.946 52.32 247.2 53.5736 247.2 55.12V77.12C247.2 78.6664 245.946 79.92 244.4 79.92C242.854 79.92 241.6 78.6664 241.6 77.12V55.12C241.6 53.5736 242.854 52.32 244.4 52.32Z" fill="#01A0C6"/>
<path fill-rule="evenodd" clip-rule="evenodd" d="M229.84 66.32C231.386 66.32 232.64 67.5736 232.64 69.12V91.12C232.64 92.6664 231.386 93.92 229.84 93.92C228.294 93.92 227.04 92.6664 227.04 91.12V69.12C227.04 67.5736 228.294 66.32 229.84 66.32Z" fill="#01A0C6"/>
<path fill-rule="evenodd" clip-rule="evenodd" d="M227.04 91.12C227.04 89.5736 228.294 88.32 229.84 88.32H251.84C253.386 88.32 254.64 89.5736 254.64 91.12C254.64 92.6664 253.386 93.92 251.84 93.92H229.84C228.294 93.92 227.04 92.6664 227.04 91.12Z" fill="#01A0C6"/>
<path fill-rule="evenodd" clip-rule="evenodd" d="M241.6 76.56C241.6 75.0136 242.854 73.76 244.4 73.76H266.4C267.947 73.76 269.2 75.0136 269.2 76.56C269.2 78.1064 267.947 79.36 266.4 79.36H244.4C242.854 79.36 241.6 78.1064 241.6 76.56Z" fill="#01A0C6"/>
</svg>
