<svg width="267" height="196" viewBox="0 0 267 196" fill="none" xmlns="http://www.w3.org/2000/svg">
<g clip-path="url(#clip0)">
<path fill-rule="evenodd" clip-rule="evenodd" d="M161.238 97.746C161.238 96.4702 162.273 95.436 163.548 95.436H252.582C253.858 95.436 254.892 96.4702 254.892 97.746C254.892 99.0217 253.858 100.056 252.582 100.056H163.548C162.273 100.056 161.238 99.0217 161.238 97.746Z" fill="#4C6267"/>
<path fill-rule="evenodd" clip-rule="evenodd" d="M250.272 97.746C250.272 96.4702 251.306 95.436 252.582 95.436H263.34C264.616 95.436 265.65 96.4702 265.65 97.746V182.424C265.65 183.7 264.616 184.734 263.34 184.734H75.1079C73.8321 184.734 72.7979 183.7 72.7979 182.424V150.084C72.7979 148.808 73.8321 147.774 75.1079 147.774C76.3836 147.774 77.4179 148.808 77.4179 150.084V180.114H261.03V100.056H252.582C251.306 100.056 250.272 99.0218 250.272 97.746Z" fill="#4C6267"/>
<path fill-rule="evenodd" clip-rule="evenodd" d="M87.8457 169.818C87.8457 168.542 88.8799 167.508 90.1557 167.508H143.484C144.759 167.508 145.794 168.542 145.794 169.818C145.794 171.094 144.759 172.128 143.484 172.128H90.1557C88.8799 172.128 87.8457 171.094 87.8457 169.818Z" fill="#4C6267"/>
<path fill-rule="evenodd" clip-rule="evenodd" d="M87.8457 157.872C87.8457 156.596 88.8799 155.562 90.1557 155.562H165.726C167.001 155.562 168.036 156.596 168.036 157.872C168.036 159.148 167.001 160.182 165.726 160.182H90.1557C88.8799 160.182 87.8457 159.148 87.8457 157.872Z" fill="#4C6267"/>
<path fill-rule="evenodd" clip-rule="evenodd" d="M155.76 116.556C155.76 115.28 156.794 114.246 158.07 114.246H235.356C236.632 114.246 237.666 115.28 237.666 116.556C237.666 117.832 236.632 118.866 235.356 118.866H158.07C156.794 118.866 155.76 117.832 155.76 116.556Z" fill="#4C6267"/>
<path fill-rule="evenodd" clip-rule="evenodd" d="M233.046 116.556C233.046 115.28 234.08 114.246 235.356 114.246H245.982C247.258 114.246 248.292 115.28 248.292 116.556C248.292 117.832 247.258 118.866 245.982 118.866H235.356C234.08 118.866 233.046 117.832 233.046 116.556Z" fill="#4C6267"/>
<path fill-rule="evenodd" clip-rule="evenodd" d="M195.954 157.872C195.954 156.596 196.988 155.562 198.264 155.562H245.982C247.258 155.562 248.292 156.596 248.292 157.872V169.818C248.292 171.094 247.258 172.128 245.982 172.128H198.264C196.988 172.128 195.954 171.094 195.954 169.818V157.872ZM200.574 160.182V167.508H243.672V160.182H200.574Z" fill="#01A0C6"/>
<path fill-rule="evenodd" clip-rule="evenodd" d="M53.0331 83.7873C47.1694 110.19 63.8196 136.347 90.2224 142.211C116.625 148.075 142.782 131.424 148.646 105.022C154.51 78.6188 137.859 52.4616 111.457 46.598C85.0539 40.7343 58.8968 57.3845 53.0331 83.7873ZM89.2208 146.721C60.3272 140.304 42.1062 111.679 48.523 82.7857C54.9399 53.8921 83.5647 35.671 112.458 42.0879C141.352 48.5048 159.573 77.1295 153.156 106.023C146.739 134.917 118.114 153.138 89.2208 146.721Z" fill="#4C6267"/>
<path fill-rule="evenodd" clip-rule="evenodd" d="M64.0511 86.2341C59.5388 106.552 72.3518 126.681 92.6699 131.194C112.988 135.706 133.117 122.893 137.629 102.575C142.142 82.2567 129.329 62.1277 109.011 57.6154C88.6925 53.103 68.5635 65.9161 64.0511 86.2341ZM91.6683 135.704C68.8594 130.638 54.4756 108.041 59.5411 85.2325C64.6066 62.4236 87.2033 48.0398 110.012 53.1053C132.821 58.1709 147.205 80.7675 142.139 103.576C137.074 126.385 114.477 140.769 91.6683 135.704Z" fill="#01A0C6"/>
<path fill-rule="evenodd" clip-rule="evenodd" d="M54.6973 132.149C55.5994 133.051 55.5994 134.513 54.6973 135.415L5.65931 184.453C4.25143 185.861 4.25143 188.161 5.65931 189.569C7.0672 190.976 9.36659 190.976 10.7745 189.569L59.8125 140.531C60.7146 139.628 62.1772 139.628 63.0793 140.531C63.9814 141.433 63.9814 142.895 63.0793 143.797L14.0413 192.835C10.8292 196.048 5.60459 196.048 2.39248 192.835C-0.819629 189.623 -0.819629 184.399 2.39248 181.187L51.4305 132.149C52.3326 131.246 53.7952 131.246 54.6973 132.149Z" fill="#4C6267"/>
<path d="M206.315 44.682H191.399V59.598H206.315V44.682Z" fill="#01A0C6"/>
<path d="M191.399 59.598H176.483V74.514H191.399V59.598Z" fill="#01A0C6"/>
<path d="M236.082 29.766H221.166V44.682H236.082V29.766Z" fill="#01A0C6"/>
<path d="M221.231 59.598H206.315V74.514H221.231V59.598Z" fill="#01A0C6"/>
<path d="M251.46 59.598H236.544V74.514H251.46V59.598Z" fill="#01A0C6"/>
<path d="M266.31 29.766H251.394V44.682H266.31V29.766Z" fill="#01A0C6"/>
<path d="M176.682 44.682H161.766V59.598H176.682V44.682Z" fill="#01A0C6"/>
<path d="M146.85 14.916H131.934V29.832H146.85V14.916Z" fill="#01A0C6"/>
<path d="M176.682 29.766H161.766V44.682H176.682V29.766Z" fill="#01A0C6"/>
<path d="M236.082 0H221.166V14.916H236.082V0Z" fill="#01A0C6"/>
<path d="M221.231 29.766H206.315V44.682H221.231V29.766Z" fill="#01A0C6"/>
<path d="M161.766 0H146.85V14.916H161.766V0Z" fill="#01A0C6"/>
<path d="M206.315 14.916H191.399V29.832H206.315V14.916Z" fill="#01A0C6"/>
</g>
<defs>
<clipPath id="clip0">
<rect width="266.31" height="195.228" fill="white"/>
</clipPath>
</defs>
</svg>
