<svg width="43" height="33" viewBox="0 0 43 33" fill="none" xmlns="http://www.w3.org/2000/svg">
<path fill-rule="evenodd" clip-rule="evenodd" d="M0.852051 1.18369C0.852051 1.04561 0.96398 0.933685 1.10205 0.933685H41.9184C42.0564 0.933685 42.1684 1.04561 42.1684 1.18369V27.348C42.1684 27.4861 42.0564 27.598 41.9184 27.598H1.10205C0.96398 27.598 0.852051 27.4861 0.852051 27.348V1.18369ZM1.35205 1.43369V27.098H41.6684V1.43369H1.35205Z" fill="#4C6267"/>
<path fill-rule="evenodd" clip-rule="evenodd" d="M21.5103 27.098C21.6483 27.098 21.7603 27.2099 21.7603 27.348V32.5809C21.7603 32.7189 21.6483 32.8309 21.5103 32.8309C21.3722 32.8309 21.2603 32.7189 21.2603 32.5809V27.348C21.2603 27.2099 21.3722 27.098 21.5103 27.098Z" fill="#4C6267"/>
<path fill-rule="evenodd" clip-rule="evenodd" d="M17.5864 32.5809C17.5864 32.4428 17.6984 32.3309 17.8364 32.3309H25.1834C25.3214 32.3309 25.4334 32.4428 25.4334 32.5809C25.4334 32.7189 25.3214 32.8309 25.1834 32.8309H17.8364C17.6984 32.8309 17.5864 32.7189 17.5864 32.5809Z" fill="#4C6267"/>
<path fill-rule="evenodd" clip-rule="evenodd" d="M21.417 9.55627C21.417 9.4182 21.5289 9.30627 21.667 9.30627H33.9119C34.05 9.30627 34.1619 9.4182 34.1619 9.55627V12.4867C34.1619 12.6248 34.05 12.7367 33.9119 12.7367H21.667C21.5289 12.7367 21.417 12.6248 21.417 12.4867V9.55627ZM21.917 9.80627V12.2367H33.6619V9.80627H21.917Z" fill="#4C6267"/>
<path fill-rule="evenodd" clip-rule="evenodd" d="M21.417 14.7891C21.417 14.6511 21.5289 14.5391 21.667 14.5391H33.9119C34.05 14.5391 34.1619 14.6511 34.1619 14.7891V17.7195C34.1619 17.8576 34.05 17.9695 33.9119 17.9695H21.667C21.5289 17.9695 21.417 17.8576 21.417 17.7195V14.7891ZM21.917 15.0391V17.4695H33.6619V15.0391H21.917Z" fill="#4C6267"/>
<path fill-rule="evenodd" clip-rule="evenodd" d="M21.417 20.022C21.417 19.8839 21.5289 19.772 21.667 19.772H33.9119C34.05 19.772 34.1619 19.8839 34.1619 20.022V22.9524C34.1619 23.0905 34.05 23.2024 33.9119 23.2024H21.667C21.5289 23.2024 21.417 23.0905 21.417 22.9524V20.022ZM21.917 20.272V22.7024H33.6619V20.272H21.917Z" fill="#01A0C6"/>
<path fill-rule="evenodd" clip-rule="evenodd" d="M16.3149 11.0215C16.3149 10.8834 16.4269 10.7715 16.5649 10.7715H19.6262C19.7642 10.7715 19.8762 10.8834 19.8762 11.0215C19.8762 11.1595 19.7642 11.2715 19.6262 11.2715H16.5649C16.4269 11.2715 16.3149 11.1595 16.3149 11.0215Z" fill="#01A0C6"/>
<path fill-rule="evenodd" clip-rule="evenodd" d="M16.3149 5.78857C16.3149 5.6505 16.4269 5.53857 16.5649 5.53857H18.6058C18.7438 5.53857 18.8558 5.6505 18.8558 5.78857V16.2543C18.8558 16.3924 18.7438 16.5043 18.6058 16.5043H16.5649C16.4269 16.5043 16.3149 16.3924 16.3149 16.2543C16.3149 16.1162 16.4269 16.0043 16.5649 16.0043H18.3558V6.03857H16.5649C16.4269 6.03857 16.3149 5.92665 16.3149 5.78857Z" fill="#01A0C6"/>
<path d="M14.5244 4.63736H9.42236V6.31188H14.5244V4.63736Z" fill="white"/>
<path fill-rule="evenodd" clip-rule="evenodd" d="M9.17236 4.63736C9.17236 4.49929 9.28429 4.38736 9.42236 4.38736H14.5244C14.6625 4.38736 14.7744 4.49929 14.7744 4.63736V6.31188C14.7744 6.44995 14.6625 6.56188 14.5244 6.56188H9.42236C9.28429 6.56188 9.17236 6.44995 9.17236 6.31188V4.63736ZM9.67236 4.88736V6.06188H14.2744V4.88736H9.67236Z" fill="#01A0C6"/>
<path d="M14.5244 9.87021H9.42236V11.5447H14.5244V9.87021Z" fill="white"/>
<path fill-rule="evenodd" clip-rule="evenodd" d="M9.17236 9.87021C9.17236 9.73214 9.28429 9.62021 9.42236 9.62021H14.5244C14.6625 9.62021 14.7744 9.73214 14.7744 9.87021V11.5447C14.7744 11.6828 14.6625 11.7947 14.5244 11.7947H9.42236C9.28429 11.7947 9.17236 11.6828 9.17236 11.5447V9.87021ZM9.67236 10.1202V11.2947H14.2744V10.1202H9.67236Z" fill="#01A0C6"/>
<path d="M14.5244 15.1031H9.42236V16.7776H14.5244V15.1031Z" fill="white"/>
<path fill-rule="evenodd" clip-rule="evenodd" d="M9.17236 15.1031C9.17236 14.965 9.28429 14.8531 9.42236 14.8531H14.5244C14.6625 14.8531 14.7744 14.965 14.7744 15.1031V16.7776C14.7744 16.9157 14.6625 17.0276 14.5244 17.0276H9.42236C9.28429 17.0276 9.17236 16.9157 9.17236 16.7776V15.1031ZM9.67236 15.3531V16.5276H14.2744V15.3531H9.67236Z" fill="#01A0C6"/>
<path d="M23.708 16.8823C23.9897 16.8823 24.2182 16.648 24.2182 16.359C24.2182 16.07 23.9897 15.8357 23.708 15.8357C23.4262 15.8357 23.1978 16.07 23.1978 16.359C23.1978 16.648 23.4262 16.8823 23.708 16.8823Z" fill="#4C6267"/>
<path d="M25.749 16.8823C26.0308 16.8823 26.2592 16.648 26.2592 16.359C26.2592 16.07 26.0308 15.8357 25.749 15.8357C25.4672 15.8357 25.2388 16.07 25.2388 16.359C25.2388 16.648 25.4672 16.8823 25.749 16.8823Z" fill="#4C6267"/>
<path d="M27.79 16.8823C28.0718 16.8823 28.3002 16.648 28.3002 16.359C28.3002 16.07 28.0718 15.8357 27.79 15.8357C27.5082 15.8357 27.2798 16.07 27.2798 16.359C27.2798 16.648 27.5082 16.8823 27.79 16.8823Z" fill="#4C6267"/>
<path d="M29.8305 16.8823C30.1123 16.8823 30.3407 16.648 30.3407 16.359C30.3407 16.07 30.1123 15.8357 29.8305 15.8357C29.5487 15.8357 29.3203 16.07 29.3203 16.359C29.3203 16.648 29.5487 16.8823 29.8305 16.8823Z" fill="#4C6267"/>
<path d="M31.8715 16.8823C32.1533 16.8823 32.3817 16.648 32.3817 16.359C32.3817 16.07 32.1533 15.8357 31.8715 15.8357C31.5898 15.8357 31.3613 16.07 31.3613 16.359C31.3613 16.648 31.5898 16.8823 31.8715 16.8823Z" fill="#4C6267"/>
</svg>
