<svg width="45" height="30" viewBox="0 0 45 30" fill="none" xmlns="http://www.w3.org/2000/svg">
<path fill-rule="evenodd" clip-rule="evenodd" d="M0.25 0.5C0.25 0.361929 0.361929 0.25 0.5 0.25H43.94C44.0781 0.25 44.19 0.361929 44.19 0.5V23.5C44.19 23.6381 44.0781 23.75 43.94 23.75H0.5C0.361929 23.75 0.25 23.6381 0.25 23.5V0.5ZM0.75 0.75V23.25H43.69V0.75H0.75Z" fill="#4C6267"/>
<path fill-rule="evenodd" clip-rule="evenodd" d="M12.9702 29.5C12.9702 29.3619 13.0821 29.25 13.2202 29.25H31.2202C31.3583 29.25 31.4702 29.3619 31.4702 29.5C31.4702 29.6381 31.3583 29.75 31.2202 29.75H13.2202C13.0821 29.75 12.9702 29.6381 12.9702 29.5Z" fill="#4C6267"/>
<path fill-rule="evenodd" clip-rule="evenodd" d="M22.2202 23.25C22.3583 23.25 22.4702 23.3619 22.4702 23.5V29.5C22.4702 29.6381 22.3583 29.75 22.2202 29.75C22.0821 29.75 21.9702 29.6381 21.9702 29.5V23.5C21.9702 23.3619 22.0821 23.25 22.2202 23.25Z" fill="#4C6267"/>
<path fill-rule="evenodd" clip-rule="evenodd" d="M23.3999 4.5C23.3999 4.36193 23.5118 4.25 23.6499 4.25H28.6499C28.788 4.25 28.8999 4.36193 28.8999 4.5V11C28.8999 11.1381 28.788 11.25 28.6499 11.25C28.5118 11.25 28.3999 11.1381 28.3999 11V4.75H23.8999V17.25H26.1499C26.288 17.25 26.3999 17.3619 26.3999 17.5C26.3999 17.6381 26.288 17.75 26.1499 17.75H23.6499C23.5118 17.75 23.3999 17.6381 23.3999 17.5V4.5Z" fill="#01A0C6"/>
<path fill-rule="evenodd" clip-rule="evenodd" d="M16.3999 8C16.3999 7.86193 16.5118 7.75 16.6499 7.75H21.6499C21.788 7.75 21.8999 7.86193 21.8999 8V17.5C21.8999 17.6381 21.788 17.75 21.6499 17.75H16.6499C16.5118 17.75 16.3999 17.6381 16.3999 17.5V8ZM16.8999 8.25V17.25H21.3999V8.25H16.8999Z" fill="#01A0C6"/>
<path fill-rule="evenodd" clip-rule="evenodd" d="M9.3999 11.5C9.3999 11.3619 9.51183 11.25 9.6499 11.25H14.6499C14.788 11.25 14.8999 11.3619 14.8999 11.5V17.5C14.8999 17.6381 14.788 17.75 14.6499 17.75H9.6499C9.51183 17.75 9.3999 17.6381 9.3999 17.5V11.5ZM9.8999 11.75V17.25H14.3999V11.75H9.8999Z" fill="#01A0C6"/>
<path fill-rule="evenodd" clip-rule="evenodd" d="M31.6499 11.75C29.578 11.75 27.8999 13.4281 27.8999 15.5C27.8999 17.5719 29.578 19.25 31.6499 19.25C33.3085 19.25 34.7153 18.1726 35.2126 16.6714C35.256 16.5403 35.3974 16.4693 35.5285 16.5127C35.6596 16.5561 35.7306 16.6975 35.6872 16.8286C35.1245 18.5274 33.5313 19.75 31.6499 19.75C29.3018 19.75 27.3999 17.8481 27.3999 15.5C27.3999 13.1519 29.3018 11.25 31.6499 11.25C32.2332 11.25 32.7959 11.3667 33.3061 11.5792C33.4335 11.6323 33.4938 11.7787 33.4407 11.9062C33.3876 12.0336 33.2412 12.0939 33.1137 12.0408C32.6639 11.8533 32.1666 11.75 31.6499 11.75Z" fill="#4C6267"/>
<path fill-rule="evenodd" clip-rule="evenodd" d="M36.8267 11.3232C36.9244 11.4209 36.9244 11.5791 36.8267 11.6768L31.8267 16.6768C31.7699 16.7336 31.6892 16.7596 31.6099 16.7468C31.5306 16.7339 31.4623 16.6837 31.4264 16.6118L30.4264 14.6118C30.3646 14.4883 30.4147 14.3381 30.5382 14.2764C30.6616 14.2146 30.8118 14.2647 30.8736 14.3882L31.7184 16.078L36.4732 11.3232C36.5708 11.2256 36.7291 11.2256 36.8267 11.3232Z" fill="#01A0C6"/>
</svg>
